<svg width="60" height="61" viewBox="0 0 60 61" fill="none" xmlns="http://www.w3.org/2000/svg">
<g clip-path="url(#clip0_21_18)">
<path d="M14.1324 20.3047H45.8654V46.1637C45.8654 47.6999 44.6199 48.9454 43.0855 48.9454H39.9071V56.8207C39.9071 58.8206 38.3119 60.4414 36.3428 60.4414C34.3687 60.4414 32.7759 58.8206 32.7759 56.8207V48.9454H27.2246V56.8207C27.2246 58.8206 25.6262 60.4414 23.6573 60.4414C21.6886 60.4414 20.0904 58.8206 20.0904 56.8207V48.9454H16.9148C15.3801 48.9454 14.1323 47.6999 14.1323 46.1637L14.1324 20.3047ZM7.91383 20.0937C5.92469 20.0937 4.31348 21.73 4.31348 23.7499V38.0394C4.31348 40.057 5.92469 41.6961 7.91383 41.6961C9.90332 41.6961 11.5142 40.057 11.5142 38.0394V23.7499C11.5142 21.73 9.90332 20.0937 7.91383 20.0937ZM45.8655 17.6989H14.1324C14.524 13.1781 17.4566 9.2877 21.6783 7.03512L18.6612 2.60497C18.2543 2.00754 18.4079 1.19239 19.0064 0.78563C19.6043 0.378872 20.4179 0.53356 20.8267 1.13051L24.1151 5.96239C25.9383 5.33192 27.9174 4.96993 29.9989 4.96993C32.0828 4.96993 34.062 5.33192 35.8851 5.96321L39.1735 1.13227C39.5773 0.533677 40.3934 0.378989 40.9913 0.785747C41.5899 1.1925 41.7434 2.00766 41.3365 2.60508L38.3219 7.03524C42.5434 9.28641 45.4741 13.1768 45.8655 17.6989ZM25.0612 11.5561C25.0612 10.5866 24.2761 9.80028 23.307 9.80028C22.3354 9.80028 21.5504 10.5866 21.5504 11.5561C21.5504 12.5251 22.338 13.3111 23.307 13.3111C24.276 13.3111 25.0612 12.5251 25.0612 11.5561ZM38.6698 11.5561C38.6698 10.5866 37.8821 9.80028 36.9132 9.80028C35.9416 9.80028 35.1589 10.5866 35.1589 11.5561C35.1589 12.5251 35.9416 13.3111 36.9132 13.3111C37.8822 13.3111 38.6698 12.5251 38.6698 11.5561ZM52.0864 20.0886C50.0993 20.0886 48.4836 21.7274 48.4836 23.7475V38.042C48.4836 40.0621 50.0993 41.7013 52.0864 41.7013C54.076 41.7013 55.6841 40.0622 55.6841 38.042V23.7475C55.6843 21.7274 54.076 20.0886 52.0864 20.0886Z" fill="white"/>
</g>
<defs>
<clipPath id="clip0_21_18">
<rect width="60" height="60" fill="white" transform="translate(0 0.5)"/>
</clipPath>
</defs>
</svg>
