<svg width="61" height="61" viewBox="0 0 61 61" fill="none" xmlns="http://www.w3.org/2000/svg">
<g clip-path="url(#clip0_21_26)">
<path d="M47.9508 32.1021C47.9244 27.2023 50.1109 23.504 54.5365 20.7804C52.0603 17.1889 48.3196 15.213 43.3803 14.8258C38.7044 14.4519 33.5938 17.5895 31.7235 17.5895C29.7477 17.5895 25.2167 14.9593 21.6604 14.9593C14.3107 15.0794 6.5 20.9005 6.5 32.743C6.5 36.241 7.13223 39.8547 8.3967 43.5841C10.0827 48.484 16.1679 60.5 22.5166 60.2997C25.8358 60.2196 28.1803 57.9099 32.5006 57.9099C36.6891 57.9099 38.8624 60.2997 42.5636 60.2997C48.965 60.2063 54.4707 49.285 56.0776 44.3718C47.4898 40.273 47.9508 32.3558 47.9508 32.1021ZM40.4957 10.1796C44.0915 5.85381 43.7622 1.91522 43.6569 0.5C40.4825 0.686916 36.8077 2.68959 34.7134 5.15955C32.4084 7.80307 31.0517 11.0741 31.3415 14.759C34.7793 15.026 37.9141 13.237 40.4957 10.1796Z" fill="white"/>
</g>
<defs>
<clipPath id="clip0_21_26">
<rect width="60" height="60" fill="white" transform="translate(0.5 0.5)"/>
</clipPath>
</defs>
</svg>
