<svg width="89" height="88" viewBox="0 0 89 88" fill="none" xmlns="http://www.w3.org/2000/svg">
<g clip-path="url(#clip0_10_72)">
<path d="M87.5612 51.0797C86.7458 49.7672 85.5914 48.6967 84.2196 47.9861C83.9297 47.8332 83.6129 47.695 83.2749 47.5692H83.2267C82.827 47.5692 82.4447 47.4484 82.1228 47.225C81.5207 47.0931 80.9028 47.0264 80.2823 47.0264C78.3063 47.0264 76.4523 47.6801 74.919 48.9161C74.575 49.1936 74.1432 49.3466 73.7017 49.3466C73.1107 49.3466 72.5595 49.0838 72.1893 48.6248C71.8637 48.2215 71.7144 47.7158 71.7701 47.2001C71.8242 46.6832 72.0771 46.2206 72.4804 45.8938C74.6786 44.1201 77.4478 43.1432 80.2787 43.1432C81.1817 43.1432 82.0845 43.2418 82.9702 43.4392C84.6281 42.1267 85.6765 40.2654 85.938 38.1536C85.9799 37.8206 86.0009 37.485 86.0009 37.1532C86.0009 35.2192 85.2928 33.3442 84.0064 31.8788C82.7098 30.4035 80.9226 29.4562 78.9724 29.2142C78.7356 29.1847 78.4964 29.1651 78.2582 29.1575C78.0829 29.3562 77.9004 29.5522 77.7117 29.7423C76.9469 30.512 76.0045 31.2101 74.8291 31.88C73.9435 32.3821 72.9392 32.8557 71.8451 33.2875C69.9494 34.0338 68.4642 34.3902 68.4494 34.3928C68.3063 34.4273 68.1534 34.4447 68.0004 34.4447C67.1012 34.4447 66.3265 33.8353 66.1133 32.9619C65.9911 32.4563 66.0738 31.9356 66.3439 31.494C66.6066 31.0612 67.0173 30.7553 67.5059 30.6269L67.544 30.6183L67.8968 31.5349L67.6538 30.5888L68.003 30.4937C68.3163 30.4049 68.7603 30.2705 69.2858 30.093C70.2355 29.7686 71.6355 29.2295 72.9111 28.5042C73.7524 28.0268 74.4592 27.5099 74.9525 27.0118C75.235 26.7255 75.5113 26.4098 75.7753 26.0706L75.9011 25.9151C77.1136 24.3129 77.8154 22.2986 77.8142 20.3162C77.8118 18.2686 77.0888 16.3777 75.7234 14.8456C74.1012 13.0299 71.7737 11.9875 69.3361 11.9875C67.233 11.9875 65.2099 12.7596 63.641 14.161C63.2846 14.4792 62.8257 14.6543 62.3483 14.6543C61.7945 14.6543 61.2664 14.4175 60.8988 14.0044C60.5548 13.6183 60.3809 13.12 60.4091 12.6031C60.4388 12.085 60.6682 11.61 61.0543 11.2646C61.8955 10.5135 62.8269 9.88423 63.8295 9.38847C63.5828 7.5345 62.7342 5.8101 61.3996 4.47542C59.7824 2.85824 57.6337 1.9688 55.3491 1.96777C53.0633 1.9688 50.9146 2.85824 49.2976 4.47542C47.6817 6.0914 46.7924 8.24145 46.7912 10.5257V24.4768H54.7645C55.8351 24.4768 56.706 25.3489 56.706 26.4182C56.706 27.4888 55.8351 28.3599 54.7645 28.3599H46.7912V37.9382C49.104 38.0466 51.0604 38.3564 52.7514 38.8793C54.7681 39.4997 56.4248 40.4546 57.6719 41.714C58.4084 42.4577 59.0299 43.336 59.5209 44.3242C60.1587 45.6156 60.5003 46.9305 60.7273 47.9322C60.8519 48.4874 60.9605 49.036 61.0653 49.5715C61.2454 50.4781 61.4143 51.3342 61.6389 52.0927C61.845 52.7909 62.0792 53.3508 62.3581 53.806C62.7023 54.3734 63.118 54.8002 63.663 55.153C64.4391 55.6489 65.4627 55.9746 66.7914 56.1473C67.3021 56.2114 67.7597 56.4729 68.0778 56.8824C68.396 57.2945 68.5342 57.8052 68.4689 58.3183C68.3431 59.2854 67.5153 60.0131 66.5446 60.0131L66.2929 59.9958C64.6683 59.7872 63.3176 59.3852 62.1618 58.7685C61.0616 58.1837 60.1426 57.3893 59.4322 56.4112C59.0177 55.8462 58.6723 55.2209 58.375 54.5041C58.0678 53.764 57.8248 52.966 57.5856 51.9162C57.4634 51.3736 57.3574 50.8307 57.2512 50.2929C57.1426 49.7452 57.0354 49.2014 56.912 48.6709C56.5566 47.1192 56.136 46.0521 55.5464 45.2109C55.1467 44.6373 54.6645 44.1562 54.0699 43.7405C53.2632 43.1781 52.2677 42.7476 51.0268 42.4244C49.8291 42.1123 48.4082 41.9099 46.791 41.8248V77.455C46.7922 79.7394 47.6817 81.8895 49.2963 83.5066C50.9146 85.1226 53.0633 86.0119 55.3491 86.0131C57.6335 86.012 59.7822 85.1226 61.3996 83.5066C63.0155 81.8882 63.906 79.7394 63.906 77.455C63.9072 76.2177 63.568 74.8597 62.9734 73.7285C62.2974 72.4343 61.3563 71.4798 60.1783 70.8876C59.2679 70.4338 58.2602 70.2118 57.0971 70.2092C56.0275 70.2092 55.1567 69.3395 55.1567 68.2702C55.1567 67.1981 56.0275 66.3274 57.0981 66.3274C58.4242 66.3274 59.6824 66.5384 60.8382 66.9553C61.9199 67.3438 62.9167 67.9148 63.7998 68.6501C65.3417 69.9391 66.5125 71.7068 67.1859 73.7616C67.5806 74.9693 67.7879 76.2459 67.7879 77.4548C67.7891 78.4193 67.6781 79.3765 67.4586 80.3116C68.3542 80.6175 69.3028 80.7778 70.2402 80.7778C72.3345 80.7766 74.3528 80.008 75.9193 78.6142C77.7425 76.992 78.7885 74.6607 78.7897 72.2173C78.7897 71.1823 78.6046 70.1685 78.2432 69.2026C77.8757 68.2243 77.3304 67.3251 76.6261 66.532C75.9155 65.7314 75.9882 64.5028 76.7864 63.7912C77.1442 63.4741 77.6018 63.3014 78.0766 63.3014C78.6316 63.3014 79.1609 63.5382 79.5296 63.9539L79.6642 64.1081L79.753 64.123C79.8135 64.1316 79.8517 64.1352 79.9417 64.139C80.0206 64.1402 80.1304 64.1414 80.2821 64.1414C82.5665 64.1402 84.7166 63.2508 86.3339 61.6349C87.9497 60.0166 88.8392 57.8679 88.8404 55.5833C88.8393 53.9859 88.3963 52.428 87.5612 51.0797Z" fill="#00C2E0"/>
<path d="M34.3528 1.96777C32.067 1.9688 29.9183 2.85824 28.3011 4.47542C26.9664 5.8101 26.1177 7.53588 25.8711 9.38727C26.8716 9.8832 27.8028 10.5109 28.6453 11.2634L28.7823 11.398L28.9242 11.5607L29.2091 11.874C29.4669 12.1527 29.8418 12.5524 30.3006 13.0112C31.1308 13.8451 32.4026 15.0466 33.7508 16.0419C34.6451 16.7031 35.4826 17.2039 36.1758 17.4914C36.657 17.6912 36.9924 17.7589 37.1897 17.7813C37.7066 17.8392 38.1691 18.0945 38.4922 18.499C38.8166 18.9037 38.9634 19.4106 38.9053 19.9263C38.7955 20.9106 37.9667 21.6533 36.9774 21.6533L36.7628 21.6411C36.0992 21.5671 35.4207 21.382 34.688 21.0773C34.0787 20.8244 33.457 20.4989 32.7846 20.0806C31.73 19.4232 30.5914 18.5547 29.4011 17.5013C27.6583 15.957 26.3248 14.4792 25.9818 14.0919C24.4215 12.7338 22.4292 11.9863 20.3632 11.9863C17.9268 11.9875 15.5993 13.0287 13.9785 14.8444C12.5759 16.4122 11.8051 18.4363 11.8039 20.5395C11.8039 21.9678 12.1603 23.3667 12.8387 24.6187H12.8621C13.5023 24.6187 14.1462 24.6669 14.7741 24.7643C15.8337 24.9296 16.5602 25.9225 16.3973 26.9796C16.248 27.9332 15.4426 28.6252 14.4804 28.6252C14.3818 28.6252 14.2806 28.6176 14.1795 28.6028C13.7503 28.5351 13.3061 28.5018 12.8621 28.5018C12.7596 28.5018 12.6586 28.503 12.5548 28.5054C10.3271 28.5856 8.24491 29.5144 6.69561 31.1216C5.1513 32.7253 4.30138 34.832 4.30138 37.0523C4.30138 37.1547 4.30258 37.2584 4.30516 37.362C4.38644 39.6552 5.39187 41.8188 7.08053 43.3667C7.85518 43.2188 8.63963 43.1435 9.41806 43.1435C12.2527 43.1435 15.0219 44.1204 17.2189 45.8941L17.4113 46.0694L17.5582 46.2347C17.6249 46.3074 17.7272 46.4146 17.8617 46.5506C18.2429 46.9353 18.6549 47.3128 19.0854 47.6742C20.0389 48.4736 21.5499 49.5751 23.3424 50.2869C24.5646 50.7716 25.7673 51.0172 26.9159 51.0172C27.9865 51.0172 28.8574 51.8879 28.8574 52.9586C28.8574 54.0293 27.9865 54.9002 26.9159 54.9002C25.269 54.8989 23.5853 54.561 21.9102 53.895C20.6075 53.377 19.3062 52.6613 18.0408 51.7671C16.283 50.5226 15.0765 49.273 14.672 48.83C13.1587 47.6508 11.344 47.0267 9.41858 47.0267C8.03097 47.0267 6.7061 47.3488 5.48123 47.9865C4.11081 48.697 2.95502 49.7676 2.13964 51.0801C1.30451 52.4283 0.861848 53.9862 0.860474 55.5848C0.861848 57.8681 1.75112 60.0169 3.36692 61.6351C4.9841 63.2511 7.13397 64.1404 9.41858 64.1416C9.70108 64.1416 9.83683 64.1404 9.95024 64.1282L10.0267 64.1182L10.1711 63.9541C10.5398 63.5384 11.0691 63.3016 11.6241 63.3016C12.0991 63.3016 12.5567 63.4743 12.9131 63.7914C13.3004 64.1354 13.5312 64.6103 13.562 65.1296C13.5915 65.6465 13.4188 66.1449 13.0736 66.5322C12.3704 67.3252 11.8254 68.2258 11.4576 69.2039C11.095 70.1698 10.9112 71.1825 10.9112 72.2175C10.9122 74.6598 11.9584 76.9912 13.7802 78.6144C15.3481 80.0081 17.3661 80.7768 19.4605 80.778C20.3981 80.778 21.3466 80.6177 22.2421 80.3118C22.0225 79.3792 21.9127 78.4221 21.9127 77.455C21.9127 75.9093 22.2409 74.3144 22.86 72.838C23.5558 71.1777 24.6066 69.7306 25.8995 68.6527C26.2485 68.3616 26.6901 68.2013 27.1427 68.2013C27.7215 68.2013 28.264 68.4554 28.6341 68.8994C29.3175 69.721 29.2077 70.9471 28.3875 71.6331C27.5696 72.3139 26.8962 73.249 26.4385 74.3406C26.0229 75.331 25.7935 76.4375 25.7947 77.4553C25.7947 79.7397 26.6851 81.8884 28.3011 83.507C29.9183 85.1229 32.0671 86.0122 34.3528 86.0134C36.6372 86.0124 38.7872 85.1229 40.4044 83.507C42.019 81.8898 42.9085 79.7397 42.9097 77.4553V61.897H35.6639C34.5945 61.897 33.7237 61.0273 33.7237 59.9566C33.7237 58.886 34.5945 58.015 35.6639 58.015H42.9097V46.2151C42.0855 45.8354 41.1851 45.6354 40.2747 45.6343C39.6358 45.6343 38.9969 45.733 38.3764 45.9254C36.753 46.4866 35.1162 46.7777 33.541 46.7777C30.5424 46.7777 27.8102 45.712 25.8316 43.7778C23.9503 41.9424 22.8698 39.4112 22.8688 36.8319C22.8676 34.5388 23.6852 32.3469 25.237 30.4929C25.607 30.0487 26.1499 29.7959 26.7271 29.7959C27.1811 29.7959 27.6227 29.9564 27.9705 30.2473C28.7921 30.9345 28.9019 32.1594 28.2173 32.9809C27.2477 34.1453 26.7544 35.4417 26.7532 36.8332C26.7532 38.369 27.4057 39.8885 28.5441 41C29.8171 42.2372 31.5453 42.8923 33.5424 42.8947C34.6896 42.8947 35.9069 42.6739 37.1589 42.2398C38.2111 41.9092 39.2399 41.7525 40.2761 41.7525C41.1703 41.7525 42.0512 41.8685 42.9097 42.1017V10.5259C42.9083 8.24145 42.019 6.0914 40.4044 4.47559C38.7872 2.85824 36.6372 1.96898 34.3528 1.96777Z" fill="#00C2E0"/>
</g>
<defs>
<clipPath id="clip0_10_72">
<rect width="87.9816" height="87.9816" fill="white" transform="translate(0.859741)"/>
</clipPath>
</defs>
</svg>
