<svg width="89" height="88" viewBox="0 0 89 88" fill="none" xmlns="http://www.w3.org/2000/svg">
<path d="M44.465 58.6551C50.5391 58.6551 55.4629 53.7313 55.4629 47.6571C55.4629 41.583 50.5391 36.6592 44.465 36.6592C38.3908 36.6592 33.467 41.583 33.467 47.6571C33.467 53.7313 38.3908 58.6551 44.465 58.6551Z" stroke="#00C2E0" stroke-width="7.33196" stroke-linecap="round" stroke-linejoin="round"/>
<path d="M11.4734 61.5886V33.7272C11.4734 29.6209 11.4734 27.5677 12.2726 25.9993C12.9755 24.6197 14.0972 23.4981 15.4768 22.7952C17.0452 21.996 19.0983 21.996 23.2046 21.996H27.0709C27.5216 21.996 27.7469 21.996 27.9548 21.9722C29.0396 21.848 30.0125 21.2467 30.6087 20.332C30.723 20.1567 30.8238 19.9551 31.0253 19.552C31.4284 18.7458 31.63 18.3427 31.8586 17.9921C33.051 16.1628 34.9969 14.9602 37.1665 14.7117C37.5822 14.6641 38.0327 14.6641 38.9342 14.6641H50.0003C50.9018 14.6641 51.3523 14.6641 51.7681 14.7117C53.9376 14.9602 55.8835 16.1628 57.076 17.9921C57.3044 18.3427 57.5061 18.7459 57.9093 19.552C58.1106 19.9551 58.2114 20.1567 58.3258 20.332C58.9222 21.2467 59.8948 21.848 60.9796 21.9722C61.1878 21.996 61.4129 21.996 61.8638 21.996H65.7299C69.8362 21.996 71.8895 21.996 73.4578 22.7952C74.8373 23.4981 75.9591 24.6197 76.6619 25.9993C77.4611 27.5677 77.4611 29.6209 77.4611 33.7272V61.5886C77.4611 65.6949 77.4611 67.7482 76.6619 69.3165C75.9591 70.696 74.8373 71.8178 73.4578 72.5205C71.8895 73.3197 69.8362 73.3197 65.7299 73.3197H23.2046C19.0983 73.3197 17.0452 73.3197 15.4768 72.5205C14.0972 71.8178 12.9755 70.696 12.2726 69.3165C11.4734 67.7482 11.4734 65.6949 11.4734 61.5886Z" stroke="#00C2E0" stroke-width="7.33196" stroke-linecap="round" stroke-linejoin="round"/>
</svg>
