<svg width="65" height="66" viewBox="0 0 65 66" fill="none" xmlns="http://www.w3.org/2000/svg">
<path fill-rule="evenodd" clip-rule="evenodd" d="M19.1178 0.89569C13.8434 1.13367 9.27193 2.42318 5.58054 6.09899C1.87625 9.79411 0.602756 14.3837 0.364185 19.6032C0.215884 22.861 -0.651304 47.4726 1.86336 53.927C3.55914 58.2813 6.89905 61.6293 11.2933 63.3306C13.3437 64.1281 15.6843 64.668 19.1178 64.8256C47.8268 66.1248 58.469 65.4175 62.9567 53.927C63.753 51.8816 64.3011 49.543 64.4526 46.1181C65.7647 17.3354 64.2399 11.0966 59.2363 6.09899C55.2677 2.14016 50.5994 -0.554697 19.1178 0.89569ZM19.3821 59.0369C16.2388 58.8954 14.5333 58.3717 13.3953 57.9311C10.5324 56.8184 8.38208 54.6769 7.27628 51.8308C5.36127 46.9265 5.99641 23.6333 6.16727 19.8642C6.33492 16.1723 7.08286 12.7982 9.68779 10.1933C12.9117 6.97733 17.077 5.40122 45.4378 6.68118C49.1389 6.84839 52.5209 7.59481 55.1322 10.1933C58.3562 13.4092 59.9552 17.6065 58.6528 45.8586C58.5109 48.9941 57.9854 50.6955 57.5438 51.8308C54.6261 59.3078 47.9138 60.3458 19.3821 59.0369ZM45.7506 15.6924C45.7506 17.8214 47.4819 19.5526 49.6194 19.5526C51.7568 19.5526 53.4913 17.8214 53.4913 15.6924C53.4913 13.5635 51.7568 11.8339 49.6194 11.8339C47.4819 11.8339 45.7506 13.5635 45.7506 15.6924ZM15.8551 32.8591C15.8551 41.9795 23.267 49.3739 32.41 49.3739C41.5531 49.3739 48.9649 41.9795 48.9649 32.8591C48.9649 23.7386 41.5531 16.349 32.41 16.349C23.267 16.349 15.8551 23.7386 15.8551 32.8591ZM21.6647 32.8591C21.6647 26.9417 26.4748 22.1408 32.41 22.1408C38.3453 22.1408 43.1554 26.9417 43.1554 32.8591C43.1554 38.7796 38.3453 43.5821 32.41 43.5821C26.4748 43.5821 21.6647 38.7796 21.6647 32.8591Z" fill="#00DDFF"/>
</svg>
