<svg width="89" height="89" viewBox="0 0 89 89" fill="none" xmlns="http://www.w3.org/2000/svg">
<g clip-path="url(#clip0_10_63)">
<path d="M30.0377 18.0684C22.729 18.0684 16.7829 24.018 16.7829 31.331C16.7829 32.347 17.606 33.1704 18.6211 33.1704C19.6364 33.1704 20.4593 32.347 20.4593 31.331C20.4593 26.0464 24.7561 21.747 30.0377 21.747C31.053 21.747 31.8759 20.9236 31.8759 19.9076C31.8759 18.8918 31.053 18.0684 30.0377 18.0684Z" fill="#00DDFF"/>
<path d="M62.4136 52.1695C65.7366 46.9568 67.6621 40.7723 67.6621 34.1446C67.6621 15.608 52.5933 0.530273 34.0677 0.530273C27.4438 0.530273 21.2629 2.45704 16.0534 5.78187C11.9027 8.42968 8.37047 11.964 5.72421 16.1171C2.40126 21.3298 0.473297 27.5167 0.473297 34.1446C0.473297 52.6787 15.5446 67.7587 34.0677 67.7587C40.6917 67.7587 46.875 65.8295 52.0846 62.5047C56.2351 59.8569 59.7674 56.3226 62.4136 52.1695ZM44.9616 55.3775C41.6946 57.0632 37.9896 58.0156 34.0677 58.0156C20.9148 58.0156 10.2107 47.3053 10.2107 34.1446C10.2107 30.2205 11.1627 26.5132 12.8473 23.2444C15.1282 18.8161 18.7531 15.1915 23.1787 12.9116C26.4456 11.226 30.1482 10.2736 34.0676 10.2736C47.223 10.2736 57.9245 20.9814 57.9245 34.1446C57.9245 38.0663 56.9726 41.7711 55.288 45.04C53.0096 49.4683 49.3871 53.0952 44.9616 55.3775Z" fill="#00DDFF"/>
<path d="M86.024 75.7432L66.6295 56.3857C63.8688 60.4195 60.3318 63.9561 56.3004 66.7209L75.695 86.0783C77.1215 87.5057 78.9913 88.2194 80.8584 88.2194C82.728 88.2194 84.5977 87.5057 86.0242 86.0783C88.8748 83.2235 88.8748 78.5979 86.024 75.7432Z" fill="#00DDFF"/>
</g>
<defs>
<clipPath id="clip0_10_63">
<rect width="87.6893" height="87.6893" fill="white" transform="translate(0.473785 0.530273)"/>
</clipPath>
</defs>
</svg>
