<svg width="89" height="89" viewBox="0 0 89 89" fill="none" xmlns="http://www.w3.org/2000/svg">
<path d="M69.367 15.5999H48.8148V6.00887C48.8148 4.91872 48.3818 3.87321 47.6109 3.10236C46.84 2.3315 45.7945 1.89844 44.7044 1.89844C43.6142 1.89844 42.5687 2.3315 41.7979 3.10236C41.027 3.87321 40.5939 4.91872 40.5939 6.00887V15.5999H20.0418C16.7724 15.6036 13.638 16.9039 11.3263 19.2157C9.0145 21.5275 7.71413 24.6619 7.71045 27.9312V66.2953C7.71413 69.5646 9.0145 72.699 11.3263 75.0108C13.638 77.3225 16.7724 78.6229 20.0418 78.6266H69.367C72.6363 78.6229 75.7707 77.3225 78.0825 75.0108C80.3943 72.699 81.6946 69.5646 81.6983 66.2953V27.9312C81.6946 24.6619 80.3943 21.5275 78.0825 19.2157C75.7707 16.9039 72.6363 15.6036 69.367 15.5999ZM73.4774 66.2953C73.4762 67.3851 73.0428 68.4299 72.2722 69.2004C71.5016 69.971 70.4568 70.4045 69.367 70.4057H20.0418C18.952 70.4045 17.9072 69.971 17.1366 69.2004C16.366 68.4299 15.9325 67.3851 15.9313 66.2953V27.9312C15.9325 26.8414 16.366 25.7966 17.1366 25.026C17.9072 24.2554 18.952 23.822 20.0418 23.8208H69.367C70.4568 23.822 71.5016 24.2554 72.2722 25.026C73.0428 25.7966 73.4762 26.8414 73.4774 27.9312V66.2953ZM59.776 45.7431H29.6328C27.09 45.7459 24.6521 46.7573 22.8541 48.5554C21.056 50.3534 20.0446 52.7913 20.0418 55.3341V56.7043C20.0446 59.2471 21.056 61.6849 22.8541 63.483C24.6521 65.281 27.09 66.2924 29.6328 66.2953H59.776C62.3188 66.2924 64.7567 65.281 66.5547 63.483C68.3528 61.6849 69.3641 59.2471 69.367 56.7043V55.3341C69.3641 52.7913 68.3528 50.3534 66.5547 48.5554C64.7567 46.7573 62.3188 45.7459 59.776 45.7431ZM47.4447 53.964V58.0744H41.9641V53.964H47.4447ZM28.2626 56.7043V55.3341C28.263 54.9708 28.4075 54.6226 28.6644 54.3657C28.9212 54.1088 29.2695 53.9644 29.6328 53.964H33.7432V58.0744H29.6328C29.2695 58.074 28.9212 57.9295 28.6644 57.6727C28.4075 57.4158 28.263 57.0675 28.2626 56.7043ZM61.1461 56.7043C61.1457 57.0675 61.0013 57.4158 60.7444 57.6727C60.4875 57.9295 60.1392 58.074 59.776 58.0744H55.6655V53.964H59.776C60.1392 53.9644 60.4875 54.1088 60.7444 54.3657C61.0013 54.6226 61.1457 54.9708 61.1461 55.3341V56.7043ZM24.1522 36.1521C24.1522 35.0681 24.4736 34.0085 25.0758 33.1072C25.6781 32.2059 26.534 31.5035 27.5355 31.0887C28.5369 30.6739 29.6389 30.5653 30.702 30.7768C31.7651 30.9883 32.7417 31.5102 33.5081 32.2767C34.2746 33.0432 34.7966 34.0197 35.0081 35.0829C35.2195 36.146 35.111 37.248 34.6962 38.2494C34.2814 39.2508 33.5789 40.1068 32.6776 40.709C31.7764 41.3112 30.7167 41.6327 29.6328 41.6327C28.1792 41.6326 26.7852 41.0552 25.7574 40.0274C24.7296 38.9996 24.1522 37.6056 24.1522 36.1521ZM54.2954 36.1521C54.2954 35.0681 54.6168 34.0085 55.219 33.1072C55.8213 32.2059 56.6772 31.5035 57.6786 31.0887C58.6801 30.6739 59.7821 30.5653 60.8452 30.7768C61.9083 30.9883 62.8849 31.5102 63.6513 32.2767C64.4178 33.0432 64.9398 34.0197 65.1513 35.0829C65.3627 36.146 65.2542 37.248 64.8394 38.2494C64.4246 39.2508 63.7221 40.1068 62.8208 40.709C61.9196 41.3112 60.8599 41.6327 59.776 41.6327C58.3224 41.6326 56.9284 41.0552 55.9006 40.0274C54.8728 38.9996 54.2954 37.6056 54.2954 36.1521Z" fill="#00C2E0"/>
</svg>
