<svg width="65" height="76" viewBox="0 0 65 76" fill="none" xmlns="http://www.w3.org/2000/svg">
<path d="M34.1337 0.960607C38.2045 0.898438 42.2455 0.930766 46.2841 0.898438C46.4184 5.94909 48.4675 10.4949 51.7276 13.862L51.7227 13.857C55.2315 17.0177 59.7972 19.0669 64.8305 19.415L64.9001 19.42V31.9434C60.1454 31.824 55.6741 30.7274 51.6431 28.8424L51.847 28.9269C49.8974 27.9894 48.2486 27.027 46.6819 25.9527L46.8113 26.0373C46.7814 35.1116 46.8411 44.1858 46.7491 53.2278C46.493 57.8358 44.9611 62.0384 42.5042 65.5473L42.5539 65.4702C38.4457 71.3539 31.7911 75.2159 24.2238 75.4446H24.189C23.8831 75.4596 23.5226 75.467 23.1595 75.467C18.8574 75.467 14.8362 74.2684 11.4095 72.187L11.5089 72.2442C5.27208 68.4916 0.969953 62.0707 0.174183 54.6029L0.164236 54.501C0.102067 52.9467 0.0722251 51.3925 0.134395 49.8706C1.35292 37.9863 11.31 28.7927 23.4131 28.7927C24.7734 28.7927 26.1063 28.9095 27.4019 29.1309L27.2627 29.111C27.3249 33.709 27.1383 38.3096 27.1383 42.9076C26.0864 42.5271 24.8729 42.3058 23.6071 42.3058C18.9618 42.3058 15.0103 45.275 13.5481 49.4205L13.5257 49.4951C13.195 50.5569 13.0035 51.778 13.0035 53.0412C13.0035 53.5535 13.0358 54.0608 13.0955 54.5582L13.0905 54.4985C13.9161 59.5865 18.2779 63.426 23.5375 63.426C23.6892 63.426 23.8384 63.4235 23.9876 63.4161H23.9652C27.6034 63.3067 30.7616 61.3496 32.5471 58.4575L32.572 58.4127C33.2359 57.4876 33.691 56.3686 33.8427 55.1525L33.8452 55.1177C34.156 49.5548 34.0317 44.0242 34.0615 38.4613C34.0914 25.9378 34.0317 13.4442 34.1237 0.953147L34.1337 0.960607Z" fill="#00DDFF"/>
</svg>
