<svg width="89" height="89" viewBox="0 0 89 89" fill="none" xmlns="http://www.w3.org/2000/svg">
<path d="M16.8918 64.2371C15.9237 65.276 15.3967 66.6501 15.4218 68.07C15.4468 69.4898 16.022 70.8445 17.0261 71.8486C18.0303 72.8528 19.385 73.428 20.8048 73.453C22.2246 73.4781 23.5988 72.951 24.6377 71.9829L42.614 54.0066L34.8681 46.2607L16.8918 64.2371Z" fill="#00C2E0"/>
<path d="M61.8086 30.9271L69.6398 26.8715L73.7441 18.9551L69.9199 15.1309L62.0035 19.2352L57.9479 27.0542L48.4238 36.5904L52.2846 40.4633L61.8086 30.9271Z" fill="#00C2E0"/>
<path d="M63.5254 51.6798H62.7824C61.4878 51.6872 60.205 51.9264 58.9948 52.3862L36.5365 29.8671C36.981 28.6622 37.2078 27.388 37.2064 26.1037L37.1333 25.373C37.0318 23.5939 36.4931 21.8672 35.5651 20.3459C34.6371 18.8246 33.3483 17.5555 31.8128 16.6511C30.2773 15.7467 28.5425 15.2348 26.7621 15.1607C24.9816 15.0867 23.2103 15.4527 21.605 16.2265L28.9124 23.5339C29.2796 23.9079 29.5621 24.3565 29.7406 24.8493C29.9444 25.4065 30.0094 26.0049 29.9301 26.5928C29.8508 27.1808 29.6295 27.7405 29.2853 28.2238C28.9412 28.707 28.4846 29.0992 27.9549 29.3664C27.4252 29.6336 26.8384 29.7678 26.2452 29.7575C25.8274 29.7444 25.4151 29.6579 25.0273 29.5017C24.538 29.3219 24.0904 29.0442 23.712 28.6857L16.4045 21.3783C15.6234 22.9832 15.2507 24.7562 15.3196 26.5399C15.3884 28.3235 15.8967 30.0625 16.7992 31.6025C17.7018 33.1424 18.9706 34.4357 20.4931 35.3674C22.0156 36.299 23.7447 36.8403 25.5267 36.9431L26.2452 37.0649C27.5398 37.0575 28.8227 36.8183 30.0329 36.3585L52.552 58.7924C52.0767 60.0202 51.8291 61.3243 51.8213 62.6409L51.8944 63.3717C52.0968 66.1247 53.3304 68.7 55.3489 70.583C57.3674 72.466 60.022 73.5181 62.7824 73.529C64.4087 73.5275 66.0129 73.1525 67.4714 72.4329L60.1639 65.1255C59.8222 64.7595 59.5572 64.3288 59.3845 63.8589C59.1909 63.3115 59.1306 62.7258 59.2085 62.1505C59.2863 61.5751 59.5002 61.0266 59.8324 60.5504C60.1645 60.0742 60.6054 59.684 61.1184 59.4122C61.6315 59.1403 62.2019 58.9946 62.7824 58.9872C63.2003 59.0002 63.6126 59.0868 64.0004 59.243C64.4971 59.4073 64.9478 59.6869 65.3157 60.059L72.6231 67.3664C73.4304 65.7585 73.8247 63.9749 73.7705 62.1765C73.7162 60.378 73.2152 58.6214 72.3125 57.065C71.4099 55.5086 70.134 54.2014 68.5999 53.2612C67.0659 52.3211 65.3219 51.7776 63.5254 51.6798Z" fill="#00C2E0"/>
</svg>
